<?xml version="1.0" standalone="no"?>
<!DOCTYPE svg PUBLIC "-//W3C//DTD SVG 20010904//EN"
 "http://www.w3.org/TR/2001/REC-SVG-20010904/DTD/svg10.dtd">
<svg version="1.0" xmlns="http://www.w3.org/2000/svg"
 width="512.000000pt" height="512.000000pt" viewBox="0 0 512.000000 512.000000"
 preserveAspectRatio="xMidYMid meet">
<metadata>
Created by potrace 1.14, written by Peter Selinger 2001-2017
</metadata>
<g transform="translate(0.000000,512.000000) scale(0.100000,-0.100000)"
fill="#000000" stroke="none">
<path d="M3468 5025 c-110 -58 -308 -117 -448 -134 -41 -5 -162 -9 -269 -10
-107 -1 -197 -4 -201 -6 -4 -2 -13 -39 -20 -82 -8 -43 -14 -82 -16 -88 -3 -16
-72 -405 -79 -455 -4 -25 -9 -54 -11 -65 -3 -11 -14 -78 -25 -150 -11 -71 -22
-141 -24 -155 -6 -38 -25 -179 -31 -230 -2 -25 -8 -76 -13 -115 -14 -120 -6
-272 17 -345 39 -118 134 -239 269 -343 69 -53 233 -152 303 -182 l44 -20
-399 -5 c-451 -6 -430 -2 -503 -86 -44 -49 -62 -104 -62 -183 l0 -51 -400 0
-400 0 1 413 c0 292 4 422 12 446 30 86 154 127 229 76 41 -28 63 -58 72 -103
l8 -32 78 0 78 0 6 33 c20 109 161 162 250 94 33 -26 66 -81 66 -111 0 -13 13
-16 81 -16 l80 0 -2 209 c-2 290 -24 400 -114 581 -51 101 -110 182 -197 269
-65 65 -177 151 -197 151 -6 0 -11 3 -11 8 0 4 -15 14 -32 21 -18 8 -60 27
-93 42 -57 25 -141 49 -230 66 -75 14 -315 7 -385 -11 -36 -9 -72 -18 -81 -21
-78 -18 -277 -122 -344 -179 -211 -180 -319 -361 -381 -633 -3 -15 -8 -135
-11 -265 l-5 -238 80 0 80 0 7 37 c8 45 69 108 115 118 84 18 171 -32 192
-111 l12 -44 76 0 76 0 15 47 c10 32 26 56 52 77 34 27 47 31 98 31 63 -1 95
-17 133 -69 20 -27 21 -41 24 -457 l3 -429 -371 0 c-252 0 -386 -4 -418 -12
-60 -15 -142 -94 -160 -154 -15 -52 -16 -240 -1 -299 13 -52 74 -126 119 -145
l30 -12 0 -809 0 -809 2320 0 2320 0 0 969 c0 962 0 970 20 976 31 10 79 54
108 99 24 37 26 52 30 167 5 160 -9 216 -69 277 -69 70 -86 72 -518 72 l-376
0 90 46 c261 133 448 305 515 474 28 71 31 86 35 200 3 105 -11 246 -51 515
-14 99 -28 189 -29 200 -2 11 -6 36 -9 55 -9 53 -15 91 -22 130 -3 19 -8 44
-9 55 -7 42 -46 261 -50 285 -23 119 -37 201 -42 230 -3 19 -8 38 -11 41 -4 4
-113 9 -242 12 -129 3 -251 8 -270 12 -100 18 -266 68 -350 105 -52 23 -99 43
-105 45 -5 2 -31 -7 -57 -20z"/>
</g>
</svg>
